<svg width="50" height="50" viewBox="0 0 50 50" fill="none" xmlns="http://www.w3.org/2000/svg">
<path d="M45.5251 42.8891L34.2114 31.5754C34.0162 31.3801 33.6996 31.3801 33.5043 31.5754L30.6759 34.4038C30.4806 34.5991 30.4806 34.9157 30.6759 35.1109L41.9896 46.4246C42.1849 46.6199 42.5014 46.6199 42.6967 46.4246L45.5251 43.5962C45.7204 43.4009 45.7204 43.0844 45.5251 42.8891Z" fill="#ff9e6e" stroke="##ff9e6e" stroke-width="3"/>
<path d="M32.3919 33.3151C33.173 32.5341 33.1847 31.256 32.4037 30.475L31.6617 29.733C30.8807 28.952 29.6026 28.9637 28.8215 29.7447V29.7447C28.0405 30.5258 28.0287 31.8039 28.8098 32.5849L29.5518 33.3269C30.3328 34.1079 31.6109 34.0962 32.3919 33.3151V33.3151Z" fill="#ff9e6e"/>
<circle cx="18.1005" cy="19" r="15" transform="rotate(-90 18.1005 19)" stroke="#ff9e6e" stroke-width="4"/>
</svg>
