<svg width="50" height="50" viewBox="0 0 50 50" fill="none" xmlns="http://www.w3.org/2000/svg">
<g id="icon-settings-outline">
<circle id="Ellipse 22" cx="25" cy="25" r="13.5" stroke="#263041" stroke-width="3"/>
<circle id="Ellipse 23" cx="25" cy="25" r="4.5" stroke="#263041" stroke-width="3"/>
<g id="Fin">
<path id="Vector 37" d="M12 30L4.92875 29.4949C4.40545 29.4575 4 29.0221 4 28.4975V23.5025C4 22.9779 4.40545 22.5425 4.92875 22.5051L12 22" stroke="#263041" stroke-width="3"/>
<g id="Rectangle 118" style="mix-blend-mode:lighten">
<path d="M10 23.65L14 23.35V28.65L10 28.35V23.65Z" fill="white"/>
</g>
</g>
<g id="Fin_2">
<path id="Vector 37_2" d="M38 30L45.0712 29.4949C45.5946 29.4575 46 29.0221 46 28.4975V23.5025C46 22.9779 45.5946 22.5425 45.0712 22.5051L38 22" stroke="#263041" stroke-width="3"/>
<g id="Rectangle 118_2" style="mix-blend-mode:lighten">
<path d="M40 23.65L36 23.35V28.65L40 28.35V23.65Z" fill="white"/>
</g>
</g>
<g id="Fin_3">
<path id="Vector 37_3" d="M21 38L21.5051 45.0712C21.5425 45.5946 21.9779 46 22.5025 46H27.4975C28.0221 46 28.4575 45.5946 28.4949 45.0712L29 38" stroke="#263041" stroke-width="3"/>
<g id="Rectangle 118_3" style="mix-blend-mode:lighten">
<path d="M27.35 40L27.65 36H22.35L22.65 40H27.35Z" fill="white"/>
</g>
</g>
<g id="Fin_4">
<path id="Vector 37_4" d="M21 12L21.5051 4.92875C21.5425 4.40545 21.9779 4 22.5025 4L27.4975 4C28.0221 4 28.4575 4.40545 28.4949 4.92875L29 12" stroke="#263041" stroke-width="3"/>
<g id="Rectangle 118_4" style="mix-blend-mode:lighten">
<path d="M27.35 10L27.65 14H22.35L22.65 10L27.35 10Z" fill="white"/>
</g>
</g>
<g id="Fin_5">
<path id="Vector 37_5" d="M12.2929 18.9497L7.64992 13.5925C7.30632 13.196 7.32753 12.6014 7.6985 12.2304L11.2304 8.6985C11.6014 8.32752 12.196 8.30632 12.5925 8.64992L17.9497 13.2929" stroke="#263041" stroke-width="3"/>
<g id="Rectangle 118_5" style="mix-blend-mode:lighten">
<path d="M15.3688 13.0454L18.4094 15.6617L14.6617 19.4094L12.0454 16.3688L15.3688 13.0454Z" fill="white"/>
</g>
</g>
<g id="Fin_6">
<path id="Vector 37_6" d="M36.7071 32.0503L41.3501 37.4075C41.6937 37.804 41.6725 38.3986 41.3015 38.7696L37.7696 42.3015C37.3986 42.6725 36.804 42.6937 36.4075 42.3501L31.0502 37.7071" stroke="#263041" stroke-width="3"/>
<g id="Rectangle 118_6" style="mix-blend-mode:lighten">
<path d="M33.6312 37.9546L30.5906 35.3383L34.3383 31.5907L36.9546 34.6312L33.6312 37.9546Z" fill="white"/>
</g>
</g>
<g id="Fin_7">
<path id="Vector 37_7" d="M37.7071 18.9497L42.3501 13.5925C42.6937 13.196 42.6725 12.6014 42.3015 12.2304L38.7696 8.6985C38.3986 8.32752 37.804 8.30632 37.4075 8.64992L32.0502 13.2929" stroke="#263041" stroke-width="3"/>
<g id="Rectangle 118_7" style="mix-blend-mode:lighten">
<path d="M34.6312 13.0454L31.5906 15.6617L35.3383 19.4094L37.9546 16.3688L34.6312 13.0454Z" fill="white"/>
</g>
</g>
<g id="Fin_8">
<path id="Vector 37_8" d="M13.2929 32.0503L8.64993 37.4075C8.30632 37.804 8.32753 38.3986 8.69851 38.7696L12.2304 42.3015C12.6014 42.6725 13.196 42.6937 13.5925 42.3501L18.9498 37.7071" stroke="#263041" stroke-width="3"/>
<g id="Rectangle 118_8" style="mix-blend-mode:lighten">
<path d="M16.3688 37.9546L19.4094 35.3383L15.6617 31.5907L13.0454 34.6312L16.3688 37.9546Z" fill="white"/>
</g>
</g>
</g>
</svg>
