<svg width="50" height="50" viewBox="0 0 50 50" fill="none" xmlns="http://www.w3.org/2000/svg">
<g id="icon-collection-outline">
<path id="Vector 30" d="M16 44V18C16 16.8954 16.8954 16 18 16H44C45.1046 16 46 16.8954 46 18V44C46 45.1046 45.1046 46 44 46H18C16.8954 46 16 45.1046 16 44Z" stroke="#263041" stroke-width="3"/>
<path id="Vector 31" d="M34 12V6C34 4.89543 33.1046 4 32 4H6C4.89543 4 4 4.89543 4 6V32C4 33.1046 4.89543 34 6 34H12" stroke="#263041" stroke-width="3"/>
<path id="Rectangle 115" d="M31 42C31.8284 42 32.5 41.3284 32.5 40.5V21.5C32.5 20.6716 31.8284 20 31 20V20C30.1716 20 29.5 20.6716 29.5 21.5V40.5C29.5 41.3284 30.1716 42 31 42V42Z" fill="#263041"/>
<path id="Rectangle 116" d="M20 30.5C20 31.3284 20.6716 32 21.5 32H40.5C41.3284 32 42 31.3284 42 30.5V30.5C42 29.6716 41.3284 29 40.5 29H21.5C20.6716 29 20 29.6716 20 30.5V30.5Z" fill="#263041"/>
</g>
</svg>
