<svg width="50" height="50" viewBox="0 0 50 50" fill="none" xmlns="http://www.w3.org/2000/svg">
<path d="M4 43C4 44.1046 4.89543 45 6 45H45C46.1046 45 47 44.1046 47 43V43C47 41.8954 46.1046 41 45 41H6C4.89543 41 4 41.8954 4 43V43Z" fill="#263041"/>
<path d="M4 43C4 44.1046 4.89543 45 6 45V45C7.10457 45 8 44.1046 8 43V34C8 32.8954 7.10457 32 6 32V32C4.89543 32 4 32.8954 4 34V43Z" fill="#263041"/>
<path d="M27 5C27 3.89543 26.1046 3 25 3V3C23.8954 3 23 3.89543 23 5L23 35C23 36.1046 23.8954 37 25 37V37C26.1046 37 27 36.1046 27 35L27 5Z" fill="#263041"/>
<path d="M39 23.2678C39 21.6929 37.0959 20.9041 35.9822 22.0178L26.4142 31.5858C25.6332 32.3668 24.3668 32.3668 23.5858 31.5858L14.0178 22.0178C12.9041 20.9041 11 21.6929 11 23.2678V23.2678C11 23.7366 11.1862 24.1862 11.5178 24.5178L23.5858 36.5858C24.3668 37.3668 25.6332 37.3668 26.4142 36.5858L38.4822 24.5178C38.8138 24.1862 39 23.7366 39 23.2678V23.2678Z" fill="#263041"/>
<path d="M43 43C43 44.1046 43.8954 45 45 45V45C46.1046 45 47 44.1046 47 43V34C47 32.8954 46.1046 32 45 32V32C43.8954 32 43 32.8954 43 34V43Z" fill="#263041"/>
</svg>
