<svg width="50" height="50" viewBox="0 0 50 50" fill="none" xmlns="http://www.w3.org/2000/svg">
<g id="icon-trash-outline">
<path id="Rectangle 115" d="M3 12.5C3 13.3284 3.67157 14 4.5 14H45.5C46.3284 14 47 13.3284 47 12.5V12.5C47 11.6716 46.3284 11 45.5 11H4.5C3.67157 11 3 11.6716 3 12.5V12.5Z" fill="#263041"/>
<path id="Vector 29" d="M18 11.5333V7C18 5.89543 18.8954 5 20 5H30C31.1046 5 32 5.89543 32 7V12" stroke="#263041" stroke-width="3"/>
<path id="Vector 30" d="M10 14V43C10 44.1046 10.8954 45 12 45H38C39.1046 45 40 44.1046 40 43V14" stroke="#263041" stroke-width="3"/>
<path id="Rectangle 115_2" d="M17 39C18.1046 39 19 38.1046 19 37V23C19 21.8954 18.1046 21 17 21V21C15.8954 21 15 21.8954 15 23V37C15 38.1046 15.8954 39 17 39V39Z" fill="#263041"/>
<path id="Rectangle 116" d="M33 39C34.1046 39 35 38.1046 35 37V23C35 21.8954 34.1046 21 33 21V21C31.8954 21 31 21.8954 31 23V37C31 38.1046 31.8954 39 33 39V39Z" fill="#263041"/>
<path id="Rectangle 117" d="M25 39C26.1046 39 27 38.1046 27 37V23C27 21.8954 26.1046 21 25 21V21C23.8954 21 23 21.8954 23 23V37C23 38.1046 23.8954 39 25 39V39Z" fill="#263041"/>
</g>
</svg>
