<svg width="50" height="50" viewBox="0 0 50 50" fill="none" xmlns="http://www.w3.org/2000/svg">
<g id="icon-exit-outline">
<path id="Rectangle 113" d="M25.9203 24.799L7.18197 6.06068C6.59619 5.47489 5.64644 5.4749 5.06065 6.06068V6.06068C4.47487 6.64647 4.47487 7.59622 5.06065 8.182L23.799 26.9203L25.9203 24.799Z" fill="#263041"/>
<path id="Rectangle 114" d="M5.76775 44.8597C5.18197 44.2739 5.18197 43.3241 5.76775 42.7384L24.8128 23.6933L26.9341 25.8147L7.88907 44.8597C7.30329 45.4455 6.35354 45.4455 5.76775 44.8597V44.8597Z" fill="#263041"/>
<path id="Rectangle 115" d="M24.0138 24.799L42.7521 6.06068C43.3379 5.47489 44.2876 5.4749 44.8734 6.06068V6.06068C45.4592 6.64647 45.4592 7.59622 44.8734 8.182L26.1351 26.9203L24.0138 24.799Z" fill="#263041"/>
<path id="Rectangle 116" d="M44.1663 44.8597C44.7521 44.2739 44.7521 43.3241 44.1663 42.7384L25.1213 23.6933L23 25.8147L42.045 44.8597C42.6308 45.4455 43.5805 45.4455 44.1663 44.8597V44.8597Z" fill="#263041"/>
</g>
</svg>
