<svg width="50" height="50" viewBox="0 0 50 50" fill="none" xmlns="http://www.w3.org/2000/svg">
<path d="M4 43C4 44.1046 4.89543 45 6 45H45C46.1046 45 47 44.1046 47 43V43C47 41.8954 46.1046 41 45 41H6C4.89543 41 4 41.8954 4 43V43Z" fill="#263041"/>
<path d="M4 43C4 44.1046 4.89543 45 6 45V45C7.10457 45 8 44.1046 8 43V34C8 32.8954 7.10457 32 6 32V32C4.89543 32 4 32.8954 4 34V43Z" fill="#263041"/>
<path d="M23 36C23 37.1046 23.8954 38 25 38V38C26.1046 38 27 37.1046 27 36V6C27 4.89543 26.1046 4 25 4V4C23.8954 4 23 4.89543 23 6V36Z" fill="#263041"/>
<path d="M11 17.7322C11 19.3071 12.9041 20.0959 14.0178 18.9822L23.5858 9.41421C24.3668 8.63316 25.6332 8.63317 26.4142 9.41421L35.9822 18.9822C37.0959 20.0959 39 19.3071 39 17.7322V17.7322C39 17.2634 38.8138 16.8138 38.4822 16.4822L26.4142 4.41421C25.6332 3.63316 24.3668 3.63317 23.5858 4.41421L11.5178 16.4822C11.1862 16.8138 11 17.2634 11 17.7322V17.7322Z" fill="#263041"/>
<path d="M43 43C43 44.1046 43.8954 45 45 45V45C46.1046 45 47 44.1046 47 43V34C47 32.8954 46.1046 32 45 32V32C43.8954 32 43 32.8954 43 34V43Z" fill="#263041"/>
</svg>
