<svg width="50" height="50" viewBox="0 0 50 50" fill="none" xmlns="http://www.w3.org/2000/svg">
<g id="icon-rightarrow-outline">
<path id="Rectangle 113" d="M46.9862 24.799L28.2479 6.06065C27.6621 5.47486 26.7124 5.47486 26.1266 6.06065V6.06065C25.5408 6.64644 25.5408 7.59619 26.1266 8.18197L44.8649 26.9203L46.9862 24.799Z" fill="#ff9e6e"/>
<path id="Rectangle 115" d="M43.9862 24L3.48622 24C2.65779 24 1.98622 24.6716 1.98622 25.5V25.5C1.98622 26.3284 2.65779 27 3.48622 27L43.9862 27V24Z" fill="#e76f51"/>
<path id="Rectangle 114" d="M26.8337 44.8596C26.2479 44.2739 26.2479 43.3241 26.8337 42.7383L45.8787 23.6933L48 25.8146L28.955 44.8596C28.3692 45.4454 27.4195 45.4454 26.8337 44.8596V44.8596Z" fill="#ff9e6e"/>
</g>
</svg>
