<svg width="50" height="50" viewBox="0 0 50 50" fill="none" xmlns="http://www.w3.org/2000/svg">
<g id="icon-plus-outline">
<path id="Rectangle 113" d="M24.5 47C25.3284 47 26 46.3284 26 45.5L26 4.5C26 3.67158 25.3284 3 24.5 3V3C23.6716 3 23 3.67157 23 4.5L23 45.5C23 46.3284 23.6716 47 24.5 47V47Z" fill="#ffffff"/>
<path id="Rectangle 114" d="M3 24.5C3 25.3284 3.67157 26 4.5 26H45.5C46.3284 26 47 25.3284 47 24.5V24.5C47 23.6716 46.3284 23 45.5 23H4.5C3.67157 23 3 23.6716 3 24.5V24.5Z" fill="#ffffff"/>
</g>
</svg>
