<svg width="50" height="50" viewBox="0 0 50 50" fill="none" xmlns="http://www.w3.org/2000/svg">
<g id="icon-checkmark-outline">
<path id="Rectangle 113" d="M18.0607 38.1733C18.6464 38.7591 19.5962 38.7591 20.182 38.1733L45.8436 12.5118C46.4294 11.926 46.4294 10.9762 45.8436 10.3904V10.3904C45.2578 9.80466 44.308 9.80466 43.7222 10.3904L18.0607 36.052C17.4749 36.6378 17.4749 37.5876 18.0607 38.1733V38.1733Z" fill="#263041"/>
<path id="Rectangle 114" d="M5.21657 23.2166C4.63079 23.8023 4.63079 24.7521 5.21657 25.3379L17.9434 38.0647C18.5292 38.6505 19.4789 38.6505 20.0647 38.0647V38.0647C20.6505 37.4789 20.6505 36.5291 20.0647 35.9434L7.33789 23.2166C6.75211 22.6308 5.80236 22.6308 5.21657 23.2166V23.2166Z" fill="#263041"/>
</g>
</svg>
