<svg width="50" height="50" viewBox="0 0 50 50" fill="none" xmlns="http://www.w3.org/2000/svg">
<g id="icon-printer-outline">
<rect id="Rectangle 108" x="11.5" y="3.5" width="27" height="9" stroke="#263041" stroke-width="3"/>
<rect id="Rectangle 113" x="9" y="18" width="4" height="4" rx="1" fill="#263041"/>
<rect id="Rectangle 114" x="15" y="18" width="4" height="4" rx="1" fill="#263041"/>
<rect id="Rectangle 109" x="10.5" y="28.5" width="29" height="18" stroke="#263041" stroke-width="3"/>
<circle id="Ellipse 21" cx="40" cy="20" r="3" stroke="#263041" stroke-width="2"/>
<rect id="Rectangle 110" x="13" y="32" width="14" height="3" rx="1.5" fill="#263041"/>
<rect id="Rectangle 111" x="13" y="40" width="10" height="3" rx="1.5" fill="#263041"/>
<rect id="Rectangle 112" x="13" y="36" width="21" height="3" rx="1.5" fill="#263041"/>
<path id="Subtract" fill-rule="evenodd" clip-rule="evenodd" d="M6 14H44C44.5523 14 45 14.4477 45 15V33C45 33.5523 44.5523 34 44 34H39V37H44C46.2091 37 48 35.2091 48 33V15C48 12.7909 46.2091 11 44 11H6C3.79086 11 2 12.7909 2 15V33C2 35.2091 3.79086 37 6 37H11V34H6C5.44772 34 5 33.5523 5 33V15C5 14.4477 5.44772 14 6 14Z" fill="#263041"/>
</g>
</svg>
