<svg width="50" height="50" viewBox="0 0 50 50" fill="none" xmlns="http://www.w3.org/2000/svg">
<g id="icon-pencil-outline" clip-path="url(#clip0_308_2)">
<g id="pencil">
<path id="Rectangle 114" d="M5.83884 36.7696L36.2444 6.36397L35.5373 5.65686C34.7563 4.87582 33.4899 4.87582 32.7089 5.65686L3.71752 34.6482L5.83884 36.7696Z" fill="#263041"/>
<path id="Rectangle 117" d="M3.71751 34.6482L2.65685 47.0226L15.0312 45.9619L13.617 43.1335L5.83883 43.8406L6.54594 36.0625L3.71751 34.6482Z" fill="#263041"/>
<path id="Rectangle 115" d="M15.0312 45.9619L44.3762 16.617C44.9619 16.0312 44.9619 15.0815 44.3762 14.4957V14.4957C43.7904 13.9099 42.8406 13.9099 42.2548 14.4957L12.9099 43.8406L15.0312 45.9619Z" fill="#263041"/>
<path id="Rectangle 116" d="M32.8857 5.48008C32.2999 6.06587 32.2999 7.01561 32.8857 7.6014L42.0781 16.7938C42.6638 17.3796 43.6136 17.3796 44.1994 16.7938V16.7938C44.7852 16.208 44.7852 15.2583 44.1994 14.6725L35.007 5.48008C34.4212 4.89429 33.4715 4.89429 32.8857 5.48008V5.48008Z" fill="#263041"/>
<path id="Vector 28" d="M33.5928 6.8943C41.371 -0.883876 50.5633 8.30851 42.7852 16.0867" stroke="#263041" stroke-width="3"/>
</g>
</g>
<defs>
<clipPath id="clip0_308_2">
<rect width="50" height="50" fill="white"/>
</clipPath>
</defs>
</svg>
