<svg width="50" height="50" viewBox="0 0 50 50" fill="none" xmlns="http://www.w3.org/2000/svg">
<g id="icon-arrow-outline">
<circle id="Ellipse 21" cx="41.5" cy="19.5" r="2.5" fill="white"/>
<path id="Rectangle 113" d="M3 24.799L21.7383 6.06065C22.3241 5.47486 23.2739 5.47486 23.8596 6.06065V6.06065C24.4454 6.64644 24.4454 7.59619 23.8596 8.18197L5.12132 26.9203L3 24.799Z" fill="#263041"/>
<path id="Rectangle 115" d="M6 24L46.5 24C47.3284 24 48 24.6716 48 25.5V25.5C48 26.3284 47.3284 27 46.5 27L6 27V24Z" fill="#263041"/>
<path id="Rectangle 114" d="M23.1525 44.8596C23.7383 44.2739 23.7383 43.3241 23.1525 42.7383L4.10754 23.6933L1.98622 25.8146L21.0312 44.8596C21.617 45.4454 22.5668 45.4454 23.1525 44.8596V44.8596Z" fill="#263041"/>
</g>
</svg>
